<svg width="189" height="66" viewBox="0 0 189 66" fill="none" xmlns="http://www.w3.org/2000/svg">
<path d="M4.29983 53.9219V0.883477H26.4164C30.3874 0.883477 33.7109 1.44459 36.387 2.56682C39.0804 3.68905 41.1004 5.26018 42.4471 7.2802C43.811 9.30021 44.493 11.6396 44.493 14.2985C44.493 16.3185 44.07 18.1227 43.224 19.7111C42.378 21.2822 41.2126 22.5857 39.7278 23.6216C38.243 24.6575 36.5251 25.3827 34.5742 25.797V26.315C36.7151 26.4186 38.6919 26.9969 40.5048 28.0501C42.3349 29.1033 43.8024 30.5708 44.9074 32.4527C46.0123 34.3173 46.5648 36.5273 46.5648 39.0825C46.5648 41.9313 45.8397 44.4779 44.3894 46.7223C42.9391 48.9495 40.8414 50.7106 38.0963 52.0054C35.3511 53.2831 32.019 53.9219 28.0998 53.9219H4.29983ZM17.1192 43.5887H25.0439C27.8235 43.5887 29.8694 43.0621 31.1816 42.009C32.511 40.9558 33.1757 39.4882 33.1757 37.6064C33.1757 36.2424 32.8563 35.0684 32.2175 34.0843C31.5787 33.0829 30.6723 32.3146 29.4982 31.7794C28.3242 31.2269 26.9171 30.9507 25.2769 30.9507H17.1192V43.5887ZM17.1192 22.6893H24.2151C25.6136 22.6893 26.8567 22.4562 27.9444 21.9901C29.0321 21.5239 29.8781 20.8506 30.4824 19.97C31.1039 19.0895 31.4147 18.0277 31.4147 16.7846C31.4147 15.0063 30.7845 13.6079 29.5241 12.5892C28.2638 11.5706 26.5632 11.0613 24.4223 11.0613H17.1192V22.6893Z" fill="white"/>
<path d="M54.8908 53.1982V51.9585L57.2245 51.0833C58.5372 50.5485 59.1936 49.5762 59.1936 48.1662V27.3089C59.1936 26.2879 59.0234 25.6072 58.6831 25.2669C58.3427 24.9266 57.8566 24.6835 57.2245 24.5376L54.8908 23.9542V22.6415C57.6621 22.2525 60.0201 21.8879 61.9648 21.5476C63.9096 21.2072 65.9272 20.6481 68.0178 19.8702L68.7471 20.4537C68.4068 20.9885 68.1394 21.815 67.9449 22.9332C67.799 24.0514 67.7261 25.2669 67.7261 26.5796V48.6767C67.7261 49.3574 67.9449 49.8922 68.3825 50.2811C68.8687 50.6701 69.3062 50.9375 69.6952 51.0833L72.0289 51.9585V53.1982H54.8908ZM63.3504 13.4526C61.8433 13.4526 60.5549 12.9421 59.4853 11.9211C58.4643 10.8515 57.9538 9.56311 57.9538 8.05594C57.9538 6.54876 58.4643 5.28468 59.4853 4.26369C60.5549 3.19408 61.8433 2.65928 63.3504 2.65928C64.8576 2.65928 66.1217 3.19408 67.1427 4.26369C68.2123 5.28468 68.7471 6.54876 68.7471 8.05594C68.7471 9.56311 68.2123 10.8515 67.1427 11.9211C66.1217 12.9421 64.8576 13.4526 63.3504 13.4526Z" fill="#69C9FF"/>
<path d="M81.3595 0.883477H97.2347L110.702 33.7217H111.323L124.79 0.883477H140.665V53.9219H128.182V21.3426H127.742L115.001 53.5852H107.024L94.2824 21.1613H93.8421V53.9219H81.3595V0.883477Z" fill="white"/>
<path d="M150.228 52.686L157.121 33.5518H161.472L168.575 52.686H165.928L159.506 35.2293L160.764 35.8584H157.672L159.008 35.2293L152.796 52.686H150.228ZM154.343 46.972L155.208 44.6654H163.464L164.329 46.972H154.343ZM172.084 52.686V33.447H174.653V52.686H172.084ZM183.905 52.686L177.562 44.1674H180.577L187.025 52.686H183.905ZM173.683 45.7663V43.4859H178.82C179.624 43.4859 180.314 43.3199 180.891 42.9879C181.468 42.6559 181.913 42.2015 182.228 41.6249C182.542 41.0308 182.7 40.358 182.7 39.6066C182.7 38.8552 182.542 38.1912 182.228 37.6145C181.913 37.0204 181.468 36.5574 180.891 36.2254C180.314 35.8759 179.624 35.7011 178.82 35.7011H173.683V33.447H178.349C179.747 33.447 180.97 33.6566 182.018 34.076C183.067 34.4954 183.879 35.142 184.456 36.0157C185.032 36.8894 185.321 38.0165 185.321 39.3969V39.8163C185.321 41.1968 185.024 42.3238 184.43 43.1976C183.853 44.0713 183.04 44.7178 181.992 45.1372C180.961 45.5566 179.747 45.7663 178.349 45.7663H173.683Z" fill="#69C9FF"/>
<path d="M6.84142 65.1135V64.3531H8.64526C8.99306 64.3531 9.26128 64.2558 9.44991 64.0613C9.64445 63.8608 9.74171 63.5956 9.74171 63.2654C9.74171 62.9294 9.64739 62.6671 9.45876 62.4785C9.27012 62.2839 8.99895 62.1867 8.64526 62.1867H6.84142V61.6208H8.52147C8.93411 61.6208 9.29665 61.6709 9.60908 61.7711C9.9274 61.8713 10.175 62.0393 10.3518 62.2751C10.5346 62.505 10.6259 62.8204 10.6259 63.2212V63.345C10.6259 63.7223 10.5493 64.0436 10.396 64.3088C10.2428 64.5682 10.0099 64.7686 9.6975 64.9101C9.38507 65.0457 8.99306 65.1135 8.52147 65.1135H6.84142ZM6.15171 65.1135V58.5878H7.01827V65.1135H6.15171ZM6.84142 62.0275V61.4616H8.40652C8.772 61.4616 9.04022 61.3643 9.21117 61.1698C9.38802 60.9694 9.47644 60.7159 9.47644 60.4094C9.47644 60.0969 9.38802 59.8434 9.21117 59.6489C9.04022 59.4485 8.772 59.3483 8.40652 59.3483H6.84142V58.5878H8.2562C8.96358 58.5878 9.49118 58.7382 9.83898 59.0388C10.1868 59.3335 10.3607 59.7609 10.3607 60.3209V60.4447C10.3607 60.8397 10.2723 61.1551 10.0954 61.3909C9.91856 61.6208 9.67097 61.7858 9.35265 61.886C9.04022 61.9804 8.67473 62.0275 8.2562 62.0275H6.84142ZM14.6999 65.2373C14.1163 65.2373 13.6241 65.1253 13.2233 64.9013C12.8283 64.6714 12.5277 64.3531 12.3213 63.9463C12.1209 63.5337 12.0207 63.0562 12.0207 62.5138V58.6232H12.8872V62.6199C12.8872 62.9795 12.955 63.2979 13.0906 63.5749C13.2321 63.8461 13.4384 64.0583 13.7096 64.2116C13.9807 64.3648 14.3109 64.4415 14.6999 64.4415C15.089 64.4415 15.4162 64.3678 15.6814 64.2204C15.9526 64.0671 16.156 63.8549 16.2916 63.5838C16.433 63.3067 16.5038 62.9854 16.5038 62.6199V58.6232H17.3703V62.5138C17.3703 63.0562 17.2701 63.5337 17.0697 63.9463C16.8693 64.3531 16.5716 64.6714 16.1766 64.9013C15.7816 65.1253 15.2894 65.2373 14.6999 65.2373ZM19.1393 65.0781V58.6232H20.0059V65.0781H19.1393ZM21.9022 65.0781V58.6232H22.7687V65.0781H21.9022ZM22.5919 65.0781V64.3H25.5452V65.0781H22.5919ZM27.4016 65.1135V64.3177H29.0109C29.4 64.3177 29.7449 64.2558 30.0455 64.132C30.352 64.0023 30.6114 63.8255 30.8236 63.6015C31.0417 63.3774 31.2068 63.1151 31.3188 62.8145C31.4308 62.5138 31.4868 62.1896 31.4868 61.8418C31.4868 61.4763 31.4308 61.1462 31.3188 60.8515C31.2068 60.5508 31.0417 60.2915 30.8236 60.0733C30.6114 59.8493 30.352 59.6784 30.0455 59.5605C29.7449 59.4426 29.4 59.3836 29.0109 59.3836H27.4016V58.5878H28.9225C29.5061 58.5878 30.0131 58.6792 30.4434 58.8619C30.8737 59.0388 31.2304 59.2805 31.5133 59.587C31.8022 59.8877 32.0173 60.2266 32.1588 60.6039C32.3003 60.9753 32.371 61.3555 32.371 61.7446V61.9391C32.371 62.3164 32.3003 62.6936 32.1588 63.0709C32.0173 63.4482 31.8022 63.7901 31.5133 64.0966C31.2304 64.4032 30.8737 64.6507 30.4434 64.8394C30.0131 65.0221 29.5061 65.1135 28.9225 65.1135H27.4016ZM26.7119 65.1135V58.5878H27.5785V65.1135H26.7119ZM33.7241 65.0781V58.6232H34.5906V65.0781H33.7241ZM36.4869 65.0781V58.6232H37.9017L41.1822 64.3H41.4651L41.2883 64.4592V58.6232H42.1195V65.0781H40.687L37.4065 59.4013H37.1235L37.3004 59.2422V65.0781H36.4869ZM46.8734 65.2373C46.3723 65.2373 45.9184 65.1548 45.5117 64.9897C45.1049 64.8246 44.7542 64.5918 44.4594 64.2912C44.1706 63.9905 43.9466 63.6368 43.7874 63.2301C43.6283 62.8174 43.5487 62.3694 43.5487 61.886V61.6915C43.5487 61.2789 43.6194 60.881 43.7609 60.4978C43.9083 60.1087 44.1175 59.7609 44.3887 59.4544C44.6658 59.142 45.0018 58.8973 45.3967 58.7205C45.7917 58.5377 46.2368 58.4464 46.7319 58.4464C47.2684 58.4464 47.7458 58.5495 48.1644 58.7558C48.5829 58.9563 48.9189 59.2392 49.1724 59.6047C49.4259 59.9643 49.5733 60.3828 49.6145 60.8603H48.7303C48.689 60.5007 48.5711 60.203 48.3766 59.9672C48.1821 59.7256 47.9404 59.5458 47.6515 59.4279C47.3686 59.3041 47.062 59.2422 46.7319 59.2422C46.3959 59.2422 46.0864 59.3041 45.8035 59.4279C45.5205 59.5458 45.2759 59.7167 45.0696 59.9407C44.8691 60.1647 44.7129 60.4329 44.6009 60.7454C44.4889 61.0578 44.4329 61.4085 44.4329 61.7976C44.4329 62.2397 44.4919 62.6288 44.6098 62.9648C44.7335 63.2949 44.9045 63.572 45.1226 63.796C45.3407 64.0141 45.5972 64.1792 45.8919 64.2912C46.1925 64.4032 46.5197 64.4592 46.8734 64.4592C47.3745 64.4592 47.8136 64.3589 48.1909 64.1585C48.5741 63.9522 48.8629 63.6869 49.0575 63.3627L48.7391 64.4149V62.4962H49.5526V64.0347C49.2638 64.412 48.8924 64.7067 48.4385 64.919C47.9846 65.1312 47.4629 65.2373 46.8734 65.2373ZM46.6435 62.673V61.9479H50.1009V62.673H46.6435ZM121.914 65.0781V58.6232H123.064L124.974 62.9294H125.115L127.016 58.6232H128.174V65.0781H127.308V59.5693L127.37 59.587L125.539 63.7429H124.478L122.639 59.587L122.71 59.5693V65.0781H121.914ZM129.359 65.0781L131.684 58.6232H133.152L135.548 65.0781H134.655L132.489 59.1891L132.913 59.4013H131.87L132.321 59.1891L130.225 65.0781H129.359ZM130.747 63.1505L131.039 62.3724H133.824L134.116 63.1505H130.747ZM136.732 65.0781V58.6232H138.147L141.427 64.3H141.71L141.533 64.4592V58.6232H142.365V65.0781H140.932L137.652 59.4013H137.369L137.545 59.2422V65.0781H136.732ZM143.546 65.0781L145.872 58.6232H147.34L149.736 65.0781H148.843L146.676 59.1891L147.101 59.4013H146.057L146.508 59.1891L144.413 65.0781H143.546ZM144.934 63.1505L145.226 62.3724H148.012L148.303 63.1505H144.934ZM153.595 65.2373C153.094 65.2373 152.64 65.1548 152.233 64.9897C151.826 64.8246 151.476 64.5918 151.181 64.2912C150.892 63.9905 150.668 63.6368 150.509 63.2301C150.35 62.8174 150.27 62.3694 150.27 61.886V61.6915C150.27 61.2789 150.341 60.881 150.482 60.4978C150.63 60.1087 150.839 59.7609 151.11 59.4544C151.387 59.142 151.723 58.8973 152.118 58.7205C152.513 58.5377 152.958 58.4464 153.453 58.4464C153.99 58.4464 154.467 58.5495 154.886 58.7558C155.304 58.9563 155.64 59.2392 155.894 59.6047C156.147 59.9643 156.295 60.3828 156.336 60.8603H155.452C155.41 60.5007 155.293 60.203 155.098 59.9672C154.903 59.7256 154.662 59.5458 154.373 59.4279C154.09 59.3041 153.783 59.2422 153.453 59.2422C153.117 59.2422 152.808 59.3041 152.525 59.4279C152.242 59.5458 151.997 59.7167 151.791 59.9407C151.591 60.1647 151.434 60.4329 151.322 60.7454C151.21 61.0578 151.154 61.4085 151.154 61.7976C151.154 62.2397 151.213 62.6288 151.331 62.9648C151.455 63.2949 151.626 63.572 151.844 63.796C152.062 64.0141 152.319 64.1792 152.613 64.2912C152.914 64.4032 153.241 64.4592 153.595 64.4592C154.096 64.4592 154.535 64.3589 154.912 64.1585C155.295 63.9522 155.584 63.6869 155.779 63.3627L155.461 64.4149V62.4962H156.274V64.0347C155.985 64.412 155.614 64.7067 155.16 64.919C154.706 65.1312 154.184 65.2373 153.595 65.2373ZM153.365 62.673V61.9479H156.822V62.673H153.365ZM158.061 65.0781V58.6232H158.927V65.0781H158.061ZM158.75 65.0781V64.3H161.881V65.0781H158.75ZM158.75 62.1867V61.4085H161.606V62.1867H158.75ZM158.75 59.4013V58.6232H161.792V59.4013H158.75ZM163.363 65.0781V58.6232H164.512L166.422 62.9294H166.564L168.465 58.6232H169.623V65.0781H168.756V59.5693L168.818 59.587L166.988 63.7429H165.927L164.088 59.587L164.158 59.5693V65.0781H163.363ZM171.497 65.0781V58.6232H172.363V65.0781H171.497ZM172.187 65.0781V64.3H175.317V65.0781H172.187ZM172.187 62.1867V61.4085H175.043V62.1867H172.187ZM172.187 59.4013V58.6232H175.228V59.4013H172.187ZM176.799 65.0781V58.6232H178.214L181.494 64.3H181.777L181.6 64.4592V58.6232H182.431V65.0781H180.999L177.718 59.4013H177.436L177.612 59.2422V65.0781H176.799ZM185.558 65.0781V59.2245H186.425V65.0781H185.558ZM183.595 59.4013V58.6232H188.388V59.4013H183.595Z" fill="white"/>
<path d="M53.3689 65.0781V58.6232H54.2355V65.0781H53.3689ZM56.1318 65.0781V58.6232H57.5465L60.8271 64.3H61.11L60.9332 64.4592V58.6232H61.7643V65.0781H60.3319L57.0514 59.4013H56.7684L56.9453 59.2422V65.0781H56.1318ZM63.6357 65.0781V58.6232H64.5022V65.0781H63.6357ZM64.3254 62.2044V61.4262L67.093 61.4174V62.1955L64.3254 62.2044ZM64.3254 59.4013V58.6232H67.2434V59.4013H64.3254ZM71.4405 65.2373C70.8628 65.2373 70.3647 65.1341 69.9462 64.9278C69.5276 64.7215 69.1828 64.4503 68.9116 64.1143C68.6404 63.7783 68.4371 63.4187 68.3015 63.0355C68.1718 62.6524 68.1069 62.2839 68.1069 61.9302V61.7357C68.1069 61.3525 68.1747 60.9664 68.3103 60.5774C68.4459 60.1883 68.6522 59.8346 68.9293 59.5163C69.2063 59.1921 69.5512 58.9327 69.9638 58.7382C70.3824 58.5436 70.8746 58.4464 71.4405 58.4464C72.0064 58.4464 72.4957 58.5436 72.9083 58.7382C73.3269 58.9327 73.6747 59.1921 73.9517 59.5163C74.2288 59.8346 74.4351 60.1883 74.5707 60.5774C74.7063 60.9664 74.7741 61.3525 74.7741 61.7357V61.9302C74.7741 62.2839 74.7063 62.6524 74.5707 63.0355C74.441 63.4187 74.2406 63.7783 73.9694 64.1143C73.6983 64.4503 73.3534 64.7215 72.9349 64.9278C72.5163 65.1341 72.0182 65.2373 71.4405 65.2373ZM71.4405 64.4415C71.8178 64.4415 72.1567 64.3707 72.4574 64.2293C72.7639 64.0878 73.0233 63.8962 73.2355 63.6545C73.4477 63.4069 73.6098 63.1299 73.7218 62.8233C73.8338 62.5109 73.8898 62.1837 73.8898 61.8418C73.8898 61.4822 73.8338 61.1462 73.7218 60.8338C73.6098 60.5214 73.4477 60.2472 73.2355 60.0115C73.0233 59.7698 72.7639 59.5811 72.4574 59.4455C72.1567 59.31 71.8178 59.2422 71.4405 59.2422C71.0632 59.2422 70.7213 59.31 70.4148 59.4455C70.1142 59.5811 69.8577 59.7698 69.6455 60.0115C69.4333 60.2472 69.2712 60.5214 69.1592 60.8338C69.0472 61.1462 68.9912 61.4822 68.9912 61.8418C68.9912 62.1837 69.0472 62.5109 69.1592 62.8233C69.2712 63.1299 69.4333 63.4069 69.6455 63.6545C69.8577 63.8962 70.1142 64.0878 70.4148 64.2293C70.7213 64.3707 71.0632 64.4415 71.4405 64.4415ZM76.1998 65.0781V58.5878H77.0663V65.0781H76.1998ZM80.1877 65.0781L78.0478 62.2044H79.0647L81.2399 65.0781H80.1877ZM76.7392 62.7437V61.9745H78.4723C78.7434 61.9745 78.9763 61.9185 79.1708 61.8065C79.3653 61.6944 79.5157 61.5412 79.6218 61.3466C79.7279 61.1462 79.7809 60.9193 79.7809 60.6658C79.7809 60.4123 79.7279 60.1883 79.6218 59.9938C79.5157 59.7933 79.3653 59.6371 79.1708 59.5251C78.9763 59.4072 78.7434 59.3483 78.4723 59.3483H76.7392V58.5878H78.3131C78.7847 58.5878 79.1973 58.6586 79.551 58.8001C79.9047 58.9415 80.1788 59.1596 80.3734 59.4544C80.5679 59.7491 80.6652 60.1294 80.6652 60.595V60.7365C80.6652 61.2022 80.5649 61.5824 80.3645 61.8772C80.17 62.1719 79.8959 62.39 79.5422 62.5315C79.1944 62.673 78.7847 62.7437 78.3131 62.7437H76.7392ZM82.3912 65.0781V58.6232H83.5407L85.4506 62.9294H85.5921L87.4932 58.6232H88.6515V65.0781H87.785V59.5693L87.8469 59.587L86.0165 63.7429H84.9554L83.1162 59.587L83.187 59.5693V65.0781H82.3912ZM89.8357 65.0781L92.1613 58.6232H93.6291L96.0254 65.0781H95.1323L92.9659 59.1891L93.3904 59.4013H92.347L92.7979 59.1891L90.7023 65.0781H89.8357ZM91.224 63.1505L91.5158 62.3724H94.3011L94.5929 63.1505H91.224ZM97.9724 65.0781V59.2245H98.839V65.0781H97.9724ZM96.0094 59.4013V58.6232H100.802V59.4013H96.0094ZM101.985 65.0781V58.6232H102.851V65.0781H101.985ZM107.639 65.2373C107.061 65.2373 106.563 65.1341 106.145 64.9278C105.726 64.7215 105.381 64.4503 105.11 64.1143C104.839 63.7783 104.635 63.4187 104.5 63.0355C104.37 62.6524 104.305 62.2839 104.305 61.9302V61.7357C104.305 61.3525 104.373 60.9664 104.509 60.5774C104.644 60.1883 104.851 59.8346 105.128 59.5163C105.405 59.1921 105.75 58.9327 106.162 58.7382C106.581 58.5436 107.073 58.4464 107.639 58.4464C108.205 58.4464 108.694 58.5436 109.107 58.7382C109.525 58.9327 109.873 59.1921 110.15 59.5163C110.427 59.8346 110.634 60.1883 110.769 60.5774C110.905 60.9664 110.972 61.3525 110.972 61.7357V61.9302C110.972 62.2839 110.905 62.6524 110.769 63.0355C110.639 63.4187 110.439 63.7783 110.168 64.1143C109.897 64.4503 109.552 64.7215 109.133 64.9278C108.715 65.1341 108.217 65.2373 107.639 65.2373ZM107.639 64.4415C108.016 64.4415 108.355 64.3707 108.656 64.2293C108.962 64.0878 109.222 63.8962 109.434 63.6545C109.646 63.4069 109.808 63.1299 109.92 62.8233C110.032 62.5109 110.088 62.1837 110.088 61.8418C110.088 61.4822 110.032 61.1462 109.92 60.8338C109.808 60.5214 109.646 60.2472 109.434 60.0115C109.222 59.7698 108.962 59.5811 108.656 59.4455C108.355 59.31 108.016 59.2422 107.639 59.2422C107.262 59.2422 106.92 59.31 106.613 59.4455C106.313 59.5811 106.056 59.7698 105.844 60.0115C105.632 60.2472 105.47 60.5214 105.358 60.8338C105.246 61.1462 105.19 61.4822 105.19 61.8418C105.19 62.1837 105.246 62.5109 105.358 62.8233C105.47 63.1299 105.632 63.4069 105.844 63.6545C106.056 63.8962 106.313 64.0878 106.613 64.2293C106.92 64.3707 107.262 64.4415 107.639 64.4415ZM112.398 65.0781V58.6232H113.813L117.093 64.3H117.376L117.2 64.4592V58.6232H118.031V65.0781H116.598L113.318 59.4013H113.035L113.212 59.2422V65.0781H112.398Z" fill="#69C9FF"/>
</svg>
